<svg width="933" height="933" viewBox="0 0 933 933" fill="none" xmlns="http://www.w3.org/2000/svg">
<path d="M0 29.1563V58.3125H87.4687H174.937V87.4688V116.625H495.656H816.375V145.781V174.938H787.219H758.062V204.094V233.25H466.5H174.937V262.406V291.563H116.625H58.3125V349.875V408.188H145.781H233.25V437.344V466.5H349.875H466.5V495.656V524.813H408.187H349.875V553.969V583.125H320.719H291.562V641.438V699.75H379.031H466.5V758.063V816.375H495.656H524.812V787.219V758.063H553.969H583.125V699.75V641.438H495.656H408.187V612.281V583.125H553.969H699.75V553.969V524.813H758.062H816.375V495.656V466.5H641.437H466.5V437.344V408.188H349.875H233.25V349.875V291.563H495.656H758.062V262.406V233.25H787.219H816.375V262.406V291.563H845.531H874.687V262.406V233.25H845.531H816.375V204.094V174.938H845.531H874.687V116.625V58.3125H524.812H174.937V29.1563V2.75373e-05H87.4687H0V29.1563Z" fill="#333333"/>
<path d="M408.188 903.844V933H437.344H466.5V903.844V874.688H437.344H408.188V903.844Z" fill="#333333"/>
</svg>
